<mxfile host="app.diagrams.net" agent="Mozilla/5.0 (Windows NT 10.0; Win64; x64) AppleWebKit/537.36 (KHTML, like Gecko) Chrome/131.0.0.0 Safari/537.36" version="26.0.5">
  <diagram name="Page-1" id="-S6SqhgAA8y9rtilw2jj">
    <mxGraphModel dx="5067" dy="695" grid="0" gridSize="10" guides="1" tooltips="1" connect="1" arrows="1" fold="1" page="1" pageScale="1" pageWidth="3300" pageHeight="2339" math="0" shadow="0">
      <root>
        <mxCell id="0" />
        <mxCell id="1" parent="0" />
        <mxCell id="bwrb6PTON3S96U9qZtl0-14" value="" style="points=[[0.13,0.02,0],[0.5,0,0],[0.87,0.02,0],[0.885,0.4,0],[0.985,0.985,0],[0.5,1,0],[0.015,0.985,0],[0.115,0.4,0]];verticalLabelPosition=bottom;sketch=0;html=1;verticalAlign=top;aspect=fixed;align=center;pointerEvents=1;shape=mxgraph.cisco19.laptop;fillColor=#005073;strokeColor=none;" vertex="1" parent="1">
          <mxGeometry x="359" y="480" width="134.29" height="94" as="geometry" />
        </mxCell>
        <mxCell id="bwrb6PTON3S96U9qZtl0-1" value="" style="points=[[0.13,0.02,0],[0.5,0,0],[0.87,0.02,0],[0.885,0.4,0],[0.985,0.985,0],[0.5,1,0],[0.015,0.985,0],[0.115,0.4,0]];verticalLabelPosition=bottom;sketch=0;html=1;verticalAlign=top;aspect=fixed;align=center;pointerEvents=1;shape=mxgraph.cisco19.laptop;fillColor=#005073;strokeColor=none;" vertex="1" parent="1">
          <mxGeometry x="596" y="476.55" width="137" height="95.9" as="geometry" />
        </mxCell>
        <mxCell id="bwrb6PTON3S96U9qZtl0-2" value="" style="image;aspect=fixed;html=1;points=[];align=center;fontSize=12;image=img/lib/azure2/databases/Azure_Database_PostgreSQL_Server.svg;fillColor=#9AC7BF;" vertex="1" parent="1">
          <mxGeometry x="1163.62" y="447" width="87.38" height="116.5" as="geometry" />
        </mxCell>
        <mxCell id="bwrb6PTON3S96U9qZtl0-3" value="&lt;font style=&quot;font-size: 14px;&quot; color=&quot;#ffffff&quot;&gt;Client Device&lt;/font&gt;" style="text;whiteSpace=wrap;html=1;" vertex="1" parent="1">
          <mxGeometry x="381.43" y="500" width="100" height="40" as="geometry" />
        </mxCell>
        <mxCell id="bwrb6PTON3S96U9qZtl0-4" value="" style="endArrow=classic;html=1;rounded=0;fontSize=12;startSize=8;endSize=8;curved=1;" edge="1" parent="1">
          <mxGeometry width="50" height="50" relative="1" as="geometry">
            <mxPoint x="1023" y="516.5" as="sourcePoint" />
            <mxPoint x="1163" y="517" as="targetPoint" />
          </mxGeometry>
        </mxCell>
        <mxCell id="bwrb6PTON3S96U9qZtl0-5" value="Prisma" style="text;whiteSpace=wrap;html=1;" vertex="1" parent="1">
          <mxGeometry x="1053" y="476.5" width="60" height="40" as="geometry" />
        </mxCell>
        <mxCell id="bwrb6PTON3S96U9qZtl0-6" value="&amp;nbsp;(Request)" style="text;whiteSpace=wrap;html=1;" vertex="1" parent="1">
          <mxGeometry x="486" y="516.5" width="80" height="40" as="geometry" />
        </mxCell>
        <mxCell id="bwrb6PTON3S96U9qZtl0-7" value="&lt;font color=&quot;#ffffff&quot;&gt;Next&lt;span class=&quot;hljs-selector-class&quot;&gt;.js&lt;/span&gt; Frontend&amp;nbsp;&lt;/font&gt;" style="text;whiteSpace=wrap;html=1;" vertex="1" parent="1">
          <mxGeometry x="619" y="499" width="190" height="40" as="geometry" />
        </mxCell>
        <mxCell id="bwrb6PTON3S96U9qZtl0-8" value="HTTP/HTTPS&amp;nbsp;" style="text;whiteSpace=wrap;html=1;" vertex="1" parent="1">
          <mxGeometry x="723" y="488.25" width="80" height="30" as="geometry" />
        </mxCell>
        <mxCell id="bwrb6PTON3S96U9qZtl0-10" value="PostgreSQL&amp;nbsp;&lt;div&gt;&amp;nbsp; Database&lt;/div&gt;" style="text;whiteSpace=wrap;html=1;" vertex="1" parent="1">
          <mxGeometry x="1181" y="572" width="70" height="40" as="geometry" />
        </mxCell>
        <mxCell id="bwrb6PTON3S96U9qZtl0-11" value="Client Device" style="text;whiteSpace=wrap;html=1;" vertex="1" parent="1">
          <mxGeometry x="-607" y="694" width="100" height="40" as="geometry" />
        </mxCell>
        <mxCell id="bwrb6PTON3S96U9qZtl0-12" value="" style="verticalAlign=top;align=left;spacingTop=8;spacingLeft=2;spacingRight=12;shape=cube;size=10;direction=south;fontStyle=4;html=1;whiteSpace=wrap;fillColor=#D5E8D4;" vertex="1" parent="1">
          <mxGeometry x="856" y="452" width="180" height="120" as="geometry" />
        </mxCell>
        <mxCell id="bwrb6PTON3S96U9qZtl0-13" value="&lt;span style=&quot;text-align: left;&quot;&gt;Next&lt;/span&gt;&lt;span style=&quot;text-align: left;&quot; class=&quot;hljs-selector-class&quot;&gt;.js&lt;/span&gt;&lt;span style=&quot;text-align: left;&quot;&gt;&amp;nbsp;API Routes&amp;nbsp;&lt;/span&gt;&lt;div style=&quot;text-align: left;&quot;&gt;&amp;nbsp; &amp;nbsp; &amp;nbsp; &amp;nbsp;Backend)&lt;/div&gt;" style="shape=module;align=left;spacingLeft=20;align=center;verticalAlign=top;whiteSpace=wrap;html=1;" vertex="1" parent="1">
          <mxGeometry x="856" y="488.25" width="137" height="50" as="geometry" />
        </mxCell>
        <mxCell id="bwrb6PTON3S96U9qZtl0-15" value="" style="endArrow=classic;html=1;rounded=0;fontSize=12;startSize=8;endSize=8;curved=1;" edge="1" parent="1">
          <mxGeometry width="50" height="50" relative="1" as="geometry">
            <mxPoint x="715" y="512.63" as="sourcePoint" />
            <mxPoint x="855" y="513.13" as="targetPoint" />
          </mxGeometry>
        </mxCell>
        <mxCell id="bwrb6PTON3S96U9qZtl0-16" value="&lt;span style=&quot;color: rgb(0, 0, 0); font-family: Helvetica; font-size: 12px; font-style: normal; font-variant-ligatures: normal; font-variant-caps: normal; font-weight: 400; letter-spacing: normal; orphans: 2; text-align: left; text-indent: 0px; text-transform: none; widows: 2; word-spacing: 0px; -webkit-text-stroke-width: 0px; white-space: normal; background-color: rgb(251, 251, 251); text-decoration-thickness: initial; text-decoration-style: initial; text-decoration-color: initial; display: inline !important; float: none;&quot;&gt;(API Call)&lt;/span&gt;" style="text;whiteSpace=wrap;html=1;" vertex="1" parent="1">
          <mxGeometry x="729" y="516.5" width="80" height="40" as="geometry" />
        </mxCell>
        <mxCell id="bwrb6PTON3S96U9qZtl0-17" value="" style="endArrow=classic;html=1;rounded=0;fontSize=12;startSize=8;endSize=8;curved=1;" edge="1" parent="1">
          <mxGeometry width="50" height="50" relative="1" as="geometry">
            <mxPoint x="471" y="518.5" as="sourcePoint" />
            <mxPoint x="611" y="519" as="targetPoint" />
          </mxGeometry>
        </mxCell>
        <mxCell id="bwrb6PTON3S96U9qZtl0-18" value="&lt;span style=&quot;color: rgb(0, 0, 0); font-family: Helvetica; font-size: 12px; font-style: normal; font-variant-ligatures: normal; font-variant-caps: normal; font-weight: 400; letter-spacing: normal; orphans: 2; text-align: left; text-indent: 0px; text-transform: none; widows: 2; word-spacing: 0px; -webkit-text-stroke-width: 0px; white-space: normal; background-color: rgb(251, 251, 251); text-decoration-thickness: initial; text-decoration-style: initial; text-decoration-color: initial; display: inline !important; float: none;&quot;&gt;HTTP/HTTPS&lt;/span&gt;" style="text;whiteSpace=wrap;html=1;" vertex="1" parent="1">
          <mxGeometry x="486" y="492.88" width="110" height="20.75" as="geometry" />
        </mxCell>
      </root>
    </mxGraphModel>
  </diagram>
</mxfile>
